<?xml version="1.0" encoding="UTF-8" standalone="no"?>
<!-- Created with Inkscape (http://www.inkscape.org/) -->

<svg
   width="500"
   height="500"
   viewBox="0 0 132.29167 132.29167"
   version="1.1"
   id="svg1"
   xmlns:xlink="http://www.w3.org/1999/xlink"
   xmlns="http://www.w3.org/2000/svg"
   xmlns:svg="http://www.w3.org/2000/svg">
  <defs
     id="defs1">
    <linearGradient
       id="swatch1">
      <stop
         style="stop-color:#3c2a2a;stop-opacity:1;"
         offset="0"
         id="stop1" />
    </linearGradient>
    <linearGradient
       id="swatch876">
      <stop
         style="stop-color:#0033a0;stop-opacity:1;"
         offset="0"
         id="stop876" />
    </linearGradient>
    <linearGradient
       id="swatch874">
      <stop
         style="stop-color:#c0c0c0;stop-opacity:1;"
         offset="0"
         id="stop874" />
    </linearGradient>
    <linearGradient
       id="swatch760">
      <stop
         style="stop-color:#3c2a2a;stop-opacity:0;"
         offset="0"
         id="stop760" />
    </linearGradient>
    <linearGradient
       id="swatch759">
      <stop
         style="stop-color:#3c2a2a;stop-opacity:0;"
         offset="0"
         id="stop759" />
    </linearGradient>
    <linearGradient
       id="swatch757">
      <stop
         style="stop-color:#3c2a2a;stop-opacity:0;"
         offset="0"
         id="stop757" />
    </linearGradient>
    <linearGradient
       id="swatch753">
      <stop
         style="stop-color:#3c2a2a;stop-opacity:0;"
         offset="0"
         id="stop753" />
    </linearGradient>
    <linearGradient
       id="swatch750">
      <stop
         style="stop-color:#3c2a2a;stop-opacity:0;"
         offset="0"
         id="stop750" />
    </linearGradient>
    <linearGradient
       id="swatch749">
      <stop
         style="stop-color:#3c2a2a;stop-opacity:0;"
         offset="0"
         id="stop749" />
    </linearGradient>
    <linearGradient
       id="swatch748">
      <stop
         style="stop-color:#3c2a2a;stop-opacity:1;"
         offset="0"
         id="stop748" />
    </linearGradient>
    <linearGradient
       id="swatch747">
      <stop
         style="stop-color:#3c2a2a;stop-opacity:0;"
         offset="0"
         id="stop747" />
    </linearGradient>
    <linearGradient
       id="swatch746">
      <stop
         style="stop-color:#3c2a2a;stop-opacity:0;"
         offset="0"
         id="stop746" />
    </linearGradient>
    <linearGradient
       id="swatch742">
      <stop
         style="stop-color:#3c2a2a;stop-opacity:0;"
         offset="0"
         id="stop742" />
    </linearGradient>
    <linearGradient
       id="swatch741">
      <stop
         style="stop-color:#3c2a2a;stop-opacity:0;"
         offset="0"
         id="stop741" />
    </linearGradient>
    <linearGradient
       id="swatch740">
      <stop
         style="stop-color:#0033aa;stop-opacity:0;"
         offset="0"
         id="stop740" />
    </linearGradient>
    <linearGradient
       id="linearGradient737">
      <stop
         style="stop-color:#3c2a2a;stop-opacity:0;"
         offset="0"
         id="stop737" />
      <stop
         style="stop-color:#3c2a2a;stop-opacity:0;"
         offset="1"
         id="stop738" />
    </linearGradient>
    <linearGradient
       id="swatch736">
      <stop
         style="stop-color:#432323;stop-opacity:0;"
         offset="0"
         id="stop736" />
    </linearGradient>
    <linearGradient
       id="swatch112">
      <stop
         style="stop-color:#000000;stop-opacity:1;"
         offset="0"
         id="stop112" />
    </linearGradient>
    <linearGradient
       id="swatch24">
      <stop
         style="stop-color:#0033a0;stop-opacity:1;"
         offset="0"
         id="stop24" />
    </linearGradient>
    <linearGradient
       xlink:href="#swatch24"
       id="linearGradient736"
       x1="14.852184"
       y1="87.02523"
       x2="74.094124"
       y2="87.02523"
       gradientUnits="userSpaceOnUse"
       gradientTransform="translate(-1.1998113,15.80007)" />
    <linearGradient
       xlink:href="#swatch874"
       id="linearGradient745"
       gradientUnits="userSpaceOnUse"
       gradientTransform="matrix(0.23876606,0,0,1.0301825,13.04517,21.769582)"
       x1="16.196945"
       y1="92.596375"
       x2="44.701504"
       y2="92.596375" />
    <linearGradient
       xlink:href="#swatch24"
       id="linearGradient753"
       x1="37.136791"
       y1="37.173027"
       x2="60.646523"
       y2="37.173027"
       gradientUnits="userSpaceOnUse"
       gradientTransform="matrix(0.266527,0,0,1.5190747,20.097541,-121.21976)" />
    <linearGradient
       xlink:href="#swatch24"
       id="linearGradient754"
       gradientUnits="userSpaceOnUse"
       gradientTransform="matrix(0.27617317,0,0,1.3669567,105.35434,-23.929766)"
       x1="37.136791"
       y1="37.173027"
       x2="60.646523"
       y2="37.173027" />
    <linearGradient
       xlink:href="#swatch24"
       id="linearGradient755"
       gradientUnits="userSpaceOnUse"
       gradientTransform="matrix(0.27094332,0,0,1.3986984,71.933763,-77.096355)"
       x1="37.136791"
       y1="37.173027"
       x2="60.646523"
       y2="37.173027" />
    <linearGradient
       xlink:href="#swatch24"
       id="linearGradient756"
       gradientUnits="userSpaceOnUse"
       gradientTransform="matrix(0.27134558,0,0,1.3965746,80.753826,-72.67006)"
       x1="37.136791"
       y1="37.173027"
       x2="60.646523"
       y2="37.173027" />
    <linearGradient
       xlink:href="#swatch24"
       id="linearGradient757"
       x1="60.766155"
       y1="74.538162"
       x2="81.970581"
       y2="74.538162"
       gradientUnits="userSpaceOnUse"
       gradientTransform="matrix(0.3405616,0,0,2.4927646,-41.160141,-75.911196)" />
    <linearGradient
       xlink:href="#swatch24"
       id="linearGradient758"
       gradientUnits="userSpaceOnUse"
       gradientTransform="matrix(0.34736245,0,0,2.4428098,-7.2719328,-121.62027)"
       x1="60.766155"
       y1="74.538162"
       x2="81.970581"
       y2="74.538162" />
    <linearGradient
       xlink:href="#swatch24"
       id="linearGradient759"
       x1="-16.757702"
       y1="22.050037"
       x2="72.766296"
       y2="22.050037"
       gradientUnits="userSpaceOnUse" />
    <linearGradient
       xlink:href="#swatch24"
       id="linearGradient760"
       x1="-29.875586"
       y1="7.9040685"
       x2="60.518478"
       y2="7.9040685"
       gradientUnits="userSpaceOnUse" />
    <linearGradient
       xlink:href="#swatch874"
       id="linearGradient766"
       gradientUnits="userSpaceOnUse"
       gradientTransform="matrix(0.35019259,0,0,1.0290937,21.88701,22.12104)"
       x1="16.196945"
       y1="92.596375"
       x2="44.701504"
       y2="92.596375" />
    <meshgradient
       id="meshgradient850"
       gradientUnits="userSpaceOnUse"
       x="68.756805"
       y="93.538818">
      <meshrow
         id="meshrow850">
        <meshpatch
           id="meshpatch850">
          <stop
             path="c 0.009993,-0.009993  0.0261949,-0.009993  0.0361879,0"
             style="stop-color:#ffffff;stop-opacity:1"
             id="stop851" />
          <stop
             path="c 0.009993,0.009993  0.009993,0.0261949  0,0.0361879"
             style="stop-color:#3c2a2a;stop-opacity:1"
             id="stop852" />
          <stop
             path="c -0.009993,0.009993  -0.0261949,0.009993  -0.0361879,0"
             style="stop-color:#ffffff;stop-opacity:1"
             id="stop853" />
          <stop
             path="c -0.009993,-0.009993  -0.009993,-0.0261949  0,-0.0361879"
             style="stop-color:#3c2a2a;stop-opacity:1"
             id="stop854" />
        </meshpatch>
      </meshrow>
    </meshgradient>
    <linearGradient
       xlink:href="#swatch876"
       id="linearGradient874"
       x1="50.447277"
       y1="80.588036"
       x2="69.894478"
       y2="80.588036"
       gradientUnits="userSpaceOnUse"
       gradientTransform="matrix(1.0425404,0,0,0.78098431,-3.3285458,16.20944)" />
    <linearGradient
       xlink:href="#swatch876"
       id="linearGradient875"
       x1="41.328995"
       y1="68.372978"
       x2="57.13438"
       y2="68.372978"
       gradientUnits="userSpaceOnUse"
       gradientTransform="matrix(0.34502253,0,0,1.2808659,35.023158,-15.360497)" />
    <linearGradient
       xlink:href="#swatch876"
       id="linearGradient876"
       x1="60.275665"
       y1="63.167629"
       x2="67.849953"
       y2="63.167629"
       gradientUnits="userSpaceOnUse" />
    <linearGradient
       xlink:href="#swatch876"
       id="linearGradient877"
       x1="88.902496"
       y1="34.771862"
       x2="95.348213"
       y2="34.771862"
       gradientUnits="userSpaceOnUse" />
    <linearGradient
       xlink:href="#swatch874"
       id="linearGradient1"
       x1="41.722294"
       y1="91.545326"
       x2="50.439655"
       y2="91.545326"
       gradientUnits="userSpaceOnUse" />
    <linearGradient
       xlink:href="#swatch874"
       id="linearGradient2"
       x1="27.302759"
       y1="91.390053"
       x2="40.05431"
       y2="91.390053"
       gradientUnits="userSpaceOnUse" />
    <linearGradient
       xlink:href="#swatch874"
       id="linearGradient3"
       x1="16.726112"
       y1="91.111877"
       x2="25.443474"
       y2="91.111877"
       gradientUnits="userSpaceOnUse" />
    <linearGradient
       xlink:href="#swatch874"
       id="linearGradient4"
       x1="16.780428"
       y1="98.541679"
       x2="25.305681"
       y2="98.541679"
       gradientUnits="userSpaceOnUse" />
    <linearGradient
       xlink:href="#swatch874"
       id="linearGradient5"
       x1="27.382235"
       y1="98.811996"
       x2="39.852398"
       y2="98.811996"
       gradientUnits="userSpaceOnUse" />
    <linearGradient
       xlink:href="#swatch874"
       id="linearGradient6"
       x1="41.776604"
       y1="98.975121"
       x2="50.301861"
       y2="98.975121"
       gradientUnits="userSpaceOnUse" />
    <linearGradient
       xlink:href="#swatch874"
       id="linearGradient7"
       x1="41.820297"
       y1="105.90941"
       x2="49.769222"
       y2="105.90941"
       gradientUnits="userSpaceOnUse" />
    <linearGradient
       xlink:href="#swatch874"
       id="linearGradient8"
       x1="27.445736"
       y1="105.73892"
       x2="39.071762"
       y2="105.73892"
       gradientUnits="userSpaceOnUse" />
    <linearGradient
       xlink:href="#swatch874"
       id="linearGradient9"
       x1="16.824114"
       y1="105.47592"
       x2="24.773041"
       y2="105.47592"
       gradientUnits="userSpaceOnUse" />
    <linearGradient
       xlink:href="#swatch874"
       id="linearGradient10"
       gradientUnits="userSpaceOnUse"
       gradientTransform="matrix(0.23876606,0,0,1.0301825,38.041351,22.203031)"
       x1="16.196945"
       y1="92.596375"
       x2="44.701504"
       y2="92.596375" />
  </defs>
  <g
     id="layer2">
    <rect
       style="opacity:1;mix-blend-mode:hue;fill:url(#linearGradient736);stroke:#000000;stroke-width:0.264583;stroke-opacity:0"
       id="rect731"
       width="40.727039"
       height="39.382275"
       x="13.784663"
       y="80.732803"
       ry="3.3960333"
       rx="17.289782" />
    <path
       id="path737"
       style="opacity:1;fill:#3c2a2a;fill-opacity:0;stroke:#000000;stroke-width:0.264583;stroke-opacity:0"
       d="m 102.66195,10.895459 c -0.29164,0.01445 -0.55607,0.295363 -1.3224,0.700733 -1.10276,0.556258 -2.231728,1.055545 -3.328995,1.621089 -1.504002,0.903602 -2.885998,1.967713 -4.302064,2.999817 -0.449283,0.313693 -0.91032,0.623338 -1.340485,0.964282 -0.634338,0.50277 -1.221435,1.064251 -1.853117,1.570447 -0.907304,0.693448 -1.83678,1.356444 -2.760039,2.0283 -0.961247,0.624329 -1.925306,1.240412 -2.925918,1.800924 -1.17484,0.730543 -2.230229,1.630769 -3.392043,2.381766 -1.088139,0.664312 -2.121117,1.407585 -3.212724,2.065508 -1.101971,0.634188 -2.240148,1.200877 -3.355867,1.810226 -0.916826,0.540414 -1.773743,1.16568 -2.633429,1.791621 -0.830673,0.559332 -1.652448,1.131213 -2.396755,1.80454 -0.700032,0.559975 -1.446197,1.058225 -2.127001,1.641245 -0.740873,0.647711 -1.545775,1.19334 -2.365748,1.735809 -0.798661,0.54215 -1.648402,0.980938 -2.486671,1.455727 -0.832136,0.464887 -1.651092,0.951461 -2.475299,1.430404 -1.298514,0.727361 -2.56156,1.515729 -3.878834,2.209684 -0.795419,0.442105 -1.586079,0.891016 -2.376598,1.342038 -0.970013,0.574833 -1.946929,1.138697 -2.92282,1.703255 -1.099315,0.640588 -2.157487,1.349806 -3.228743,2.035535 -1.055227,0.669419 -2.138465,1.285912 -3.244762,1.86655 -0.947873,0.572852 -1.91361,1.119497 -2.930573,1.561664 -1.115597,0.498255 -2.240497,0.975862 -3.359483,1.466577 -0.831218,0.351375 -1.658911,0.716238 -2.397787,1.243333 -0.695933,0.422415 -1.355865,0.886462 -2.00143,1.382863 -0.355398,0.253505 -0.713742,0.502605 -1.03456,0.799949 -0.530696,0.332293 -1.089877,0.61893 -1.582849,1.010793 -0.519954,0.396354 -1.042474,0.785538 -1.60197,1.125511 -0.487346,0.340739 -0.961331,0.701686 -1.510503,0.942578 -0.432523,0.207987 -0.88982,0.35386 -1.317231,0.573609 -0.482288,0.212529 -1.005481,0.336029 -1.441256,0.644922 -0.519838,0.309399 -1.011392,0.653767 -1.499133,1.011825 -0.711654,0.472329 -1.446897,0.894403 -2.304769,1.034044 -0.863306,0.113557 -1.736381,0.07669 -2.605009,0.04806 l 3.188952,2.316655 c 0.696063,-0.07163 1.404055,0.03868 2.098063,-0.05684 0.159058,-0.02188 0.31451,-0.06444 0.471806,-0.09663 0.895298,-0.185536 1.653296,-0.673304 2.417424,-1.145151 0.09459,-0.06258 0.191444,-0.122126 0.283705,-0.188103 0.360976,-0.258146 0.181953,-0.164335 0.538466,-0.397391 0.22877,-0.14955 0.473594,-0.255447 0.7028,-0.404627 0.446503,-0.260107 0.950484,-0.376579 1.412835,-0.609264 0.450146,-0.190987 0.901676,-0.343495 1.331185,-0.580842 0.55009,-0.263732 1.015084,-0.660369 1.523936,-0.987021 0.08693,-0.06133 0.171625,-0.125423 0.260451,-0.183967 0.123063,-0.08111 0.401664,-0.239107 0.52193,-0.325046 0.28112,-0.20088 0.535139,-0.439049 0.812872,-0.645438 0.483388,-0.403434 1.075023,-0.628224 1.597318,-0.966351 0.336582,-0.293915 0.694836,-0.553024 1.031463,-0.84801 0.601728,-0.528889 1.284697,-0.932897 1.958535,-1.357538 0.71492,-0.529979 1.537005,-0.856445 2.344561,-1.209746 1.09792,-0.516792 2.208921,-1.003845 3.314525,-1.503783 1.036259,-0.452996 2.032074,-0.99431 3.010151,-1.560629 0.938607,-0.509868 1.852845,-1.064411 2.747637,-1.648479 0.134581,0.124587 0.268129,0.25086 0.39946,0.379304 1.138309,1.069105 2.195679,2.225178 3.341915,3.287655 2.151891,2.097095 4.289457,4.208832 6.449735,6.297292 2.247961,2.209059 4.497395,4.417314 6.635252,6.734471 2.086684,2.264963 4.120592,4.579427 6.050796,6.979936 1.396392,1.74199 2.785078,3.503887 3.956346,5.407938 0.829543,1.328277 1.638091,2.670799 2.357996,4.062285 0.288867,0.60257 0.610209,1.196464 0.8723,1.811258 0.381354,0.894551 0.645522,1.832721 0.956529,2.752289 0.333598,1.124225 0.690711,2.257337 0.889868,3.41581 0.04063,0.236339 -0.117422,0.570622 0.0739,0.715203 0.03407,0.02575 0.06785,0.05163 0.101285,0.077 -0.06067,1.046826 -0.05042,1.004175 1.641761,1.287261 1.925071,1.557732 1.868826,1.659273 1.802474,0.332795 v -5.15e-4 c 0.0899,8.83e-4 0.06118,-0.1103 -0.0026,-0.254249 -0.0094,-1.007512 -0.01087,-2.015419 0.04238,-3.022037 0.07496,-1.208963 0.227973,-2.408488 0.368969,-3.611149 0.06425,-1.199203 0.16778,-2.39527 0.452168,-3.565673 0.270526,-1.134044 0.601956,-2.251332 0.992187,-3.350184 0.399614,-1.314725 0.82658,-2.622923 1.150319,-3.958934 0.398393,-1.649796 0.708469,-3.321356 1.178739,-4.952669 0.545598,-1.806694 1.084837,-3.615198 1.607138,-5.428607 0.528836,-2.124495 1.02525,-4.255518 1.643827,-6.356717 0.530722,-1.938137 0.970251,-3.897554 1.322401,-5.876129 0.363445,-2.124567 0.854355,-4.228076 1.365808,-6.32106 0.543155,-1.928061 1.109707,-3.849642 1.701186,-5.763474 0.546518,-1.826765 1.122437,-3.645191 1.731677,-5.451864 0.550804,-1.502923 1.143794,-2.987405 1.797824,-4.448823 0.63693,-1.746451 1.22479,-3.50841 1.57458,-5.339209 0.40743,-1.890572 0.69812,-3.802386 1.11724,-5.690609 0.3274,-1.455401 0.63311,-2.920183 1.12138,-4.332552 0.0678,-0.20579 0.13854,-0.410331 0.20361,-0.617016 0.0541,-0.171716 0.30067,-0.413413 0.15399,-0.517798 -2.19348,-1.561111 -2.67796,-2.109369 -3.1042,-2.088245 z m -1.3441,4.272607 c -0.12508,0.496622 -0.24545,0.994096 -0.3576,1.493966 -0.37797,1.912732 -0.59649,3.849026 -1.003044,5.756755 -0.362119,1.804031 -0.983149,3.528937 -1.64021,5.241024 -0.672097,1.457505 -1.240446,2.954203 -1.777669,4.46536 -0.537927,1.838028 -1.175462,3.643905 -1.727544,5.477184 -0.631828,1.912993 -1.127673,3.866208 -1.625741,5.817217 -0.526796,2.09242 -1.030007,4.189859 -1.454689,6.305558 -0.39351,1.969299 -0.765707,3.94254 -1.23145,5.896797 -0.58056,2.101678 -1.151896,4.205793 -1.729095,6.308659 -0.48832,1.817849 -1.04371,3.616394 -1.601967,5.413624 -0.443243,1.640213 -0.810911,3.299703 -1.233517,4.945435 -0.294103,1.335474 -0.771356,2.618293 -1.175639,3.922242 -0.388085,1.103617 -0.717507,2.22273 -1.029396,3.349664 -0.274095,1.099633 -0.355579,2.233605 -0.422195,3.362069 -0.710179,-1.383332 -1.533882,-2.706386 -2.349728,-4.02921 -1.236752,-1.929133 -2.622608,-3.756888 -4.088122,-5.516459 -1.981261,-2.372686 -3.989615,-4.722416 -6.069399,-7.009392 -2.144596,-2.357866 -4.442282,-4.568823 -6.724136,-6.791833 -2.101601,-2.063422 -4.20012,-4.129519 -6.273001,-6.221844 -1.071528,-1.059328 -2.102927,-2.158328 -3.170351,-3.221508 -0.91453,-0.889715 -1.902137,-1.695408 -2.905766,-2.480985 0.884339,-0.554696 1.770693,-1.105768 2.680457,-1.61799 0.969566,-0.582544 1.960496,-1.128988 2.936772,-1.699636 0.812064,-0.410787 1.601785,-0.863661 2.376083,-1.341004 1.26066,-0.770083 2.511845,-1.546116 3.820437,-2.233456 0.841309,-0.487434 1.718474,-0.907727 2.575039,-1.366324 0.825765,-0.495671 1.653712,-0.983401 2.456696,-1.517222 0.394983,-0.329977 0.864193,-0.554773 1.286227,-0.841809 0.396782,-0.269861 0.760222,-0.609081 1.124995,-0.919839 0.698791,-0.553019 1.423606,-1.071052 2.1146,-1.634009 0.735785,-0.661866 1.548077,-1.227685 2.35593,-1.796275 0.844539,-0.63745 1.716955,-1.231527 2.638596,-1.751314 1.092828,-0.629356 2.212309,-1.211326 3.302125,-1.846397 1.105469,-0.638543 2.14267,-1.38566 3.210658,-2.08411 1.144415,-0.783478 2.216748,-1.659937 3.422012,-2.351279 1.029433,-0.517248 1.956136,-1.204407 2.933155,-1.808158 0.935908,-0.672296 1.86246,-1.356748 2.778641,-2.055689 1.006985,-0.895826 2.042562,-1.755077 3.106788,-2.581754 0.978572,-0.681676 1.904962,-1.440371 2.89543,-2.105298 0.465948,-0.3128 0.922768,-0.567872 1.407148,-0.84956 0.0563,-0.02733 0.11242,-0.05523 0.16847,-0.0832 z" />
    <rect
       style="opacity:1;fill:url(#linearGradient3);fill-opacity:1;stroke:#000000;stroke-width:0.132682;stroke-opacity:0"
       id="rect741"
       width="8.5846796"
       height="4.5503969"
       x="16.792454"
       y="88.836678"
       rx="0"
       ry="0" />
    <rect
       style="fill:url(#linearGradient4);fill-opacity:1;stroke:#000000;stroke-width:0.131222;stroke-opacity:0"
       id="rect741-4"
       width="8.3940315"
       height="4.5518575"
       x="16.846039"
       y="96.265747"
       rx="0"
       ry="0" />
    <rect
       style="fill:url(#linearGradient9);fill-opacity:1;stroke:#000000;stroke-width:0.126735;stroke-opacity:0"
       id="rect741-1"
       width="7.8221917"
       height="4.5563436"
       x="16.887482"
       y="103.19775"
       rx="0"
       ry="0" />
    <rect
       style="fill:url(#linearGradient745);stroke:#000000;stroke-width:0.131222;stroke-opacity:0"
       id="rect741-4-9"
       width="8.3940315"
       height="4.5518575"
       x="16.944038"
       y="110.62984"
       rx="0"
       ry="0" />
    <rect
       style="fill:url(#linearGradient1);fill-opacity:1;stroke:#000000;stroke-width:0.132682;stroke-opacity:0"
       id="rect741-3"
       width="8.5846796"
       height="4.5503969"
       x="41.788635"
       y="89.270126"
       rx="0"
       ry="0" />
    <rect
       style="fill:url(#linearGradient6);fill-opacity:1;stroke:#000000;stroke-width:0.131222;stroke-opacity:0"
       id="rect741-4-8"
       width="8.3940315"
       height="4.5518575"
       x="41.842216"
       y="96.699188"
       rx="0"
       ry="0" />
    <rect
       style="fill:url(#linearGradient7);fill-opacity:1;stroke:#000000;stroke-width:0.126735;stroke-opacity:0"
       id="rect741-1-0"
       width="7.8221917"
       height="4.5563436"
       x="41.883663"
       y="103.63124"
       rx="0"
       ry="0" />
    <rect
       style="fill:url(#linearGradient10);stroke:#000000;stroke-width:0.131222;stroke-opacity:0"
       id="rect741-4-9-12"
       width="8.3940315"
       height="4.5518575"
       x="41.94022"
       y="111.06325"
       rx="0"
       ry="0" />
    <rect
       style="fill:url(#linearGradient2);fill-opacity:1;stroke:#000000;stroke-width:0.160601;stroke-opacity:0"
       id="rect741-5"
       width="12.590948"
       height="4.545588"
       x="27.38306"
       y="89.117256"
       rx="0"
       ry="0" />
    <rect
       style="fill:url(#linearGradient5);fill-opacity:1;stroke:#000000;stroke-width:0.158834;stroke-opacity:0"
       id="rect741-4-99"
       width="12.31133"
       height="4.5470467"
       x="27.461651"
       y="96.538475"
       rx="0"
       ry="0" />
    <rect
       style="fill:url(#linearGradient8);fill-opacity:1;stroke:#000000;stroke-width:0.153403;stroke-opacity:0"
       id="rect741-1-8"
       width="11.472626"
       height="4.551528"
       x="27.522436"
       y="103.46316"
       rx="0"
       ry="0" />
    <rect
       style="fill:url(#linearGradient766);stroke:#000000;stroke-width:0.158834;stroke-opacity:0"
       id="rect741-4-9-1"
       width="12.31133"
       height="4.5470467"
       x="27.605387"
       y="110.88737"
       rx="0"
       ry="0" />
    <rect
       style="opacity:1;fill:url(#linearGradient753);stroke:#000000;stroke-width:0.168353;stroke-opacity:0"
       id="rect753"
       width="6.1954603"
       height="83.170807"
       x="30.030762"
       y="-106.33651"
       transform="matrix(0.33842342,0.94099394,-0.9838869,0.17879199,0,0)" />
    <rect
       style="fill:url(#linearGradient754);stroke:#000000;stroke-width:0.162566;stroke-opacity:0"
       id="rect753-8"
       width="6.4196873"
       height="74.842194"
       x="115.64709"
       y="-10.536954"
       transform="matrix(0.97592498,0.21810646,-0.36103125,0.93255372,0,0)" />
    <rect
       style="fill:url(#linearGradient755);stroke:#000000;stroke-width:0.162878;stroke-opacity:0"
       id="rect753-8-9"
       width="6.2981186"
       height="76.580086"
       x="82.031601"
       y="-63.392563"
       transform="matrix(0.77837694,0.62779721,-0.75246703,0.65862991,0,0)" />
    <rect
       style="fill:url(#linearGradient756);stroke:#000000;stroke-width:0.162875;stroke-opacity:0"
       id="rect753-8-9-3"
       width="6.3074689"
       height="76.463806"
       x="90.866661"
       y="-58.987068"
       transform="matrix(0.79576347,0.60560754,-0.73346298,0.6797294,0,0)" />
    <rect
       style="opacity:1;fill:url(#linearGradient757);stroke:#000000;stroke-width:0.243781;stroke-opacity:0"
       id="rect757"
       width="7.1313076"
       height="39.268295"
       x="-20.420471"
       y="90.260727"
       transform="matrix(0.64765857,-0.76193069,0.81575086,0.57840343,0,0)" />
    <rect
       style="fill:url(#linearGradient876);fill-opacity:1;stroke:#000000;stroke-width:0.175245;stroke-opacity:0"
       id="rect757-5"
       width="7.3990421"
       height="19.558025"
       x="60.363289"
       y="53.388618"
       transform="matrix(0.99943028,0.03375065,-0.09619597,0.99536241,0,0)" />
    <rect
       style="fill:url(#linearGradient877);fill-opacity:1;stroke:#000000;stroke-width:0.120586;stroke-opacity:0"
       id="rect757-5-1"
       width="6.3251257"
       height="10.832652"
       x="88.962791"
       y="29.355536"
       transform="matrix(0.88420182,0.46710506,-0.56441502,0.82549118,0,0)" />
    <rect
       style="fill:url(#linearGradient758);stroke:#000000;stroke-width:0.243724;stroke-opacity:0"
       id="rect757-6"
       width="7.2737164"
       height="38.481365"
       x="13.881902"
       y="41.221607"
       transform="matrix(0.88593224,-0.46381469,0.53500002,0.84485204,0,0)" />
    <path
       style="opacity:1;fill:url(#linearGradient759);fill-opacity:0;stroke:#000000;stroke-width:0.264583;stroke-opacity:0"
       id="path758"
       d="M 47.450838,34.195341 26.801026,68.100462 8.3195406,32.966334 -10.718249,-1.8694883 28.94954,-0.30786021 68.637142,0.62284186 Z" />
    <path
       style="opacity:1;fill:url(#linearGradient760);stroke:#000000;stroke-width:0.264583;stroke-opacity:0"
       id="path759"
       d="M 60.322123,52.061449 15.433766,41.359156 -29.619085,31.371952 2.0935512,-2.1513583 33.269149,-36.17467 46.44487,8.0509339 Z"
       transform="matrix(0.22348806,0.12135945,-0.19030031,0.23051005,113.10228,10.246734)" />
    <path
       style="opacity:1;fill:url(#linearGradient875);stroke:#000000;stroke-width:0.175889;stroke-opacity:0"
       id="path770"
       d="m 50.537924,86.556702 c -0.0268,-2.551219 0.09598,-5.078897 0.177243,-7.601931 0.130287,-4.045145 -0.01094,-0.21977 0.148151,-4.334392 0.06824,-1.895505 0.181708,-3.761419 0.323463,-5.598264 0.06052,-0.784194 0.13503,-1.711888 0.225621,-2.467812 0.03533,-0.294809 0.08096,-0.571076 0.121441,-0.856613 0.123725,-0.69316 0.261287,-1.356501 0.45333,-1.804406 0.07002,-0.16331 0.145306,-0.293257 0.217468,-0.443168 0.193739,-0.376235 0.411621,-0.471984 0.619242,-0.691252 0.221376,-0.233644 0.450783,-0.365414 0.664867,-0.683667 0.162349,-0.241477 0.305745,-0.588294 0.474767,-0.77048 0.177406,-0.1797 0.342856,-0.444754 0.52362,-0.601421 0.04433,-0.03044 0.08866,-0.06089 0.13299,-0.09134 0,0 -1.096295,-2.837825 -1.096295,-2.837825 v 0 c -0.04538,0.03508 -0.09076,0.07015 -0.136134,0.105236 -0.185694,0.162802 -0.362946,0.394427 -0.544664,0.605258 -0.162505,0.230364 -0.310397,0.56765 -0.473307,0.794079 -0.213044,0.273859 -0.43481,0.443259 -0.652907,0.651765 -0.2191,0.193703 -0.439114,0.375073 -0.635526,0.8083 -0.301909,0.651273 -0.517051,1.395156 -0.673172,2.585158 -0.03798,0.312503 -0.08148,0.616533 -0.113928,0.93751 -0.07426,0.734606 -0.14773,1.839297 -0.194791,2.579771 -0.119937,1.887118 -0.21738,3.79426 -0.287948,5.715642 -0.03097,0.733767 -0.06675,1.464958 -0.09291,2.201301 -0.02519,0.708978 -0.03909,1.422889 -0.06108,2.133324 -0.07676,2.480166 -0.168387,4.957407 -0.322256,7.390213 z" />
    <path
       style="opacity:1;fill:url(#linearGradient874);stroke:#000000;stroke-width:0.238742;stroke-opacity:0"
       id="path771"
       d="m 65.747059,71.355301 c 0.180589,1.479219 0.12396,2.964937 0.01148,4.445395 -0.106173,1.442611 -0.657494,2.829463 -1.360922,4.165112 -0.430477,0.719421 -0.885898,1.46536 -1.580124,2.06868 -0.129602,0.112631 -0.276539,0.213377 -0.414809,0.320068 -0.83397,0.549981 -1.750512,1.047193 -2.747983,1.416527 -1.160784,0.455522 -2.417415,0.71455 -3.700402,0.885404 -0.876047,0.141194 -1.763825,0.225683 -2.657837,0.262189 -0.673107,0.03336 -1.350382,-0.03231 -2.007435,0.09803 -0.470699,0.127959 -0.967877,0.16779 -1.463902,0.193232 -0.07556,0.013 -0.151134,0.02599 -0.2267,0.039 0,0 3.362248,1.759813 3.362248,1.759813 v 0 c 0.06565,-0.0068 0.131296,-0.01353 0.196946,-0.02029 0.504066,-0.04444 1.001177,-0.113784 1.486846,-0.226291 0.646318,-0.07761 1.305093,-0.02585 1.95565,-0.07354 0.879374,-0.06275 1.748259,-0.182995 2.608629,-0.332207 1.303515,-0.21067 2.589802,-0.490591 3.784792,-0.942862 1.021548,-0.403551 1.95387,-0.924107 2.803061,-1.510066 0.924099,-0.744728 1.569694,-1.552171 2.017061,-2.515349 0.662249,-1.377691 1.237552,-2.804107 1.340372,-4.274529 0.09374,-1.454949 0.09426,-2.913251 0.240788,-4.365975 z" />
    <circle
       id="path772"
       style="fill:url(#meshgradient850);fill-opacity:1;stroke:#000000;stroke-width:0.264583"
       cx="68.774902"
       cy="93.556915"
       r="0.025588689" />
  </g>
  <script
     id="mesh_polyfill"
     type="text/javascript">
!function(){const t=&quot;http://www.w3.org/2000/svg&quot;,e=&quot;http://www.w3.org/1999/xlink&quot;,s=&quot;http://www.w3.org/1999/xhtml&quot;,r=2;if(document.createElementNS(t,&quot;meshgradient&quot;).x)return;const n=(t,e,s,r)=&gt;{let n=new x(.5*(e.x+s.x),.5*(e.y+s.y)),o=new x(.5*(t.x+e.x),.5*(t.y+e.y)),i=new x(.5*(s.x+r.x),.5*(s.y+r.y)),a=new x(.5*(n.x+o.x),.5*(n.y+o.y)),h=new x(.5*(n.x+i.x),.5*(n.y+i.y)),l=new x(.5*(a.x+h.x),.5*(a.y+h.y));return[[t,o,a,l],[l,h,i,r]]},o=t=&gt;{let e=t[0].distSquared(t[1]),s=t[2].distSquared(t[3]),r=.25*t[0].distSquared(t[2]),n=.25*t[1].distSquared(t[3]),o=e&gt;s?e:s,i=r&gt;n?r:n;return 18*(o&gt;i?o:i)},i=(t,e)=&gt;Math.sqrt(t.distSquared(e)),a=(t,e)=&gt;t.scale(2/3).add(e.scale(1/3)),h=t=&gt;{let e,s,r,n,o,i,a,h=new g;return t.match(/(\w+\(\s*[^)]+\))+/g).forEach(t=&gt;{let l=t.match(/[\w.-]+/g),d=l.shift();switch(d){case&quot;translate&quot;:2===l.length?e=new g(1,0,0,1,l[0],l[1]):(console.error(&quot;mesh.js: translate does not have 2 arguments!&quot;),e=new g(1,0,0,1,0,0)),h=h.append(e);break;case&quot;scale&quot;:1===l.length?s=new g(l[0],0,0,l[0],0,0):2===l.length?s=new g(l[0],0,0,l[1],0,0):(console.error(&quot;mesh.js: scale does not have 1 or 2 arguments!&quot;),s=new g(1,0,0,1,0,0)),h=h.append(s);break;case&quot;rotate&quot;:if(3===l.length&amp;&amp;(e=new g(1,0,0,1,l[1],l[2]),h=h.append(e)),l[0]){r=l[0]*Math.PI/180;let t=Math.cos(r),e=Math.sin(r);Math.abs(t)&lt;1e-16&amp;&amp;(t=0),Math.abs(e)&lt;1e-16&amp;&amp;(e=0),a=new g(t,e,-e,t,0,0),h=h.append(a)}else console.error(&quot;math.js: No argument to rotate transform!&quot;);3===l.length&amp;&amp;(e=new g(1,0,0,1,-l[1],-l[2]),h=h.append(e));break;case&quot;skewX&quot;:l[0]?(r=l[0]*Math.PI/180,n=Math.tan(r),o=new g(1,0,n,1,0,0),h=h.append(o)):console.error(&quot;math.js: No argument to skewX transform!&quot;);break;case&quot;skewY&quot;:l[0]?(r=l[0]*Math.PI/180,n=Math.tan(r),i=new g(1,n,0,1,0,0),h=h.append(i)):console.error(&quot;math.js: No argument to skewY transform!&quot;);break;case&quot;matrix&quot;:6===l.length?h=h.append(new g(...l)):console.error(&quot;math.js: Incorrect number of arguments for matrix!&quot;);break;default:console.error(&quot;mesh.js: Unhandled transform type: &quot;+d)}}),h},l=t=&gt;{let e=[],s=t.split(/[ ,]+/);for(let t=0,r=s.length-1;t&lt;r;t+=2)e.push(new x(parseFloat(s[t]),parseFloat(s[t+1])));return e},d=(t,e)=&gt;{for(let s in e)t.setAttribute(s,e[s])},c=(t,e,s,r,n)=&gt;{let o,i,a=[0,0,0,0];for(let h=0;h&lt;3;++h)e[h]&lt;t[h]&amp;&amp;e[h]&lt;s[h]||t[h]&lt;e[h]&amp;&amp;s[h]&lt;e[h]?a[h]=0:(a[h]=.5*((e[h]-t[h])/r+(s[h]-e[h])/n),o=Math.abs(3*(e[h]-t[h])/r),i=Math.abs(3*(s[h]-e[h])/n),a[h]&gt;o?a[h]=o:a[h]&gt;i&amp;&amp;(a[h]=i));return a},u=[[1,0,0,0,0,0,0,0,0,0,0,0,0,0,0,0],[0,0,0,0,1,0,0,0,0,0,0,0,0,0,0,0],[-3,3,0,0,-2,-1,0,0,0,0,0,0,0,0,0,0],[2,-2,0,0,1,1,0,0,0,0,0,0,0,0,0,0],[0,0,0,0,0,0,0,0,1,0,0,0,0,0,0,0],[0,0,0,0,0,0,0,0,0,0,0,0,1,0,0,0],[0,0,0,0,0,0,0,0,-3,3,0,0,-2,-1,0,0],[0,0,0,0,0,0,0,0,2,-2,0,0,1,1,0,0],[-3,0,3,0,0,0,0,0,-2,0,-1,0,0,0,0,0],[0,0,0,0,-3,0,3,0,0,0,0,0,-2,0,-1,0],[9,-9,-9,9,6,3,-6,-3,6,-6,3,-3,4,2,2,1],[-6,6,6,-6,-3,-3,3,3,-4,4,-2,2,-2,-2,-1,-1],[2,0,-2,0,0,0,0,0,1,0,1,0,0,0,0,0],[0,0,0,0,2,0,-2,0,0,0,0,0,1,0,1,0],[-6,6,6,-6,-4,-2,4,2,-3,3,-3,3,-2,-1,-2,-1],[4,-4,-4,4,2,2,-2,-2,2,-2,2,-2,1,1,1,1]],f=t=&gt;{let e=[];for(let s=0;s&lt;16;++s){e[s]=0;for(let r=0;r&lt;16;++r)e[s]+=u[s][r]*t[r]}return e},p=(t,e,s)=&gt;{const r=e*e,n=s*s,o=e*e*e,i=s*s*s;return t[0]+t[1]*e+t[2]*r+t[3]*o+t[4]*s+t[5]*s*e+t[6]*s*r+t[7]*s*o+t[8]*n+t[9]*n*e+t[10]*n*r+t[11]*n*o+t[12]*i+t[13]*i*e+t[14]*i*r+t[15]*i*o},y=t=&gt;{let e=[],s=[],r=[];for(let s=0;s&lt;4;++s)e[s]=[],e[s][0]=n(t[0][s],t[1][s],t[2][s],t[3][s]),e[s][1]=[],e[s][1].push(...n(...e[s][0][0])),e[s][1].push(...n(...e[s][0][1])),e[s][2]=[],e[s][2].push(...n(...e[s][1][0])),e[s][2].push(...n(...e[s][1][1])),e[s][2].push(...n(...e[s][1][2])),e[s][2].push(...n(...e[s][1][3]));for(let t=0;t&lt;8;++t){s[t]=[];for(let r=0;r&lt;4;++r)s[t][r]=[],s[t][r][0]=n(e[0][2][t][r],e[1][2][t][r],e[2][2][t][r],e[3][2][t][r]),s[t][r][1]=[],s[t][r][1].push(...n(...s[t][r][0][0])),s[t][r][1].push(...n(...s[t][r][0][1])),s[t][r][2]=[],s[t][r][2].push(...n(...s[t][r][1][0])),s[t][r][2].push(...n(...s[t][r][1][1])),s[t][r][2].push(...n(...s[t][r][1][2])),s[t][r][2].push(...n(...s[t][r][1][3]))}for(let t=0;t&lt;8;++t){r[t]=[];for(let e=0;e&lt;8;++e)r[t][e]=[],r[t][e][0]=s[t][0][2][e],r[t][e][1]=s[t][1][2][e],r[t][e][2]=s[t][2][2][e],r[t][e][3]=s[t][3][2][e]}return r};class x{constructor(t,e){this.x=t||0,this.y=e||0}toString(){return`(x=${this.x}, y=${this.y})`}clone(){return new x(this.x,this.y)}add(t){return new x(this.x+t.x,this.y+t.y)}scale(t){return void 0===t.x?new x(this.x*t,this.y*t):new x(this.x*t.x,this.y*t.y)}distSquared(t){let e=this.x-t.x,s=this.y-t.y;return e*e+s*s}transform(t){let e=this.x*t.a+this.y*t.c+t.e,s=this.x*t.b+this.y*t.d+t.f;return new x(e,s)}}class g{constructor(t,e,s,r,n,o){void 0===t?(this.a=1,this.b=0,this.c=0,this.d=1,this.e=0,this.f=0):(this.a=t,this.b=e,this.c=s,this.d=r,this.e=n,this.f=o)}toString(){return`affine: ${this.a} ${this.c} ${this.e} \n       ${this.b} ${this.d} ${this.f}`}append(t){t instanceof g||console.error(&quot;mesh.js: argument to Affine.append is not affine!&quot;);let e=this.a*t.a+this.c*t.b,s=this.b*t.a+this.d*t.b,r=this.a*t.c+this.c*t.d,n=this.b*t.c+this.d*t.d,o=this.a*t.e+this.c*t.f+this.e,i=this.b*t.e+this.d*t.f+this.f;return new g(e,s,r,n,o,i)}}class w{constructor(t,e){this.nodes=t,this.colors=e}paintCurve(t,e){if(o(this.nodes)&gt;r){const s=n(...this.nodes);let r=[[],[]],o=[[],[]];for(let t=0;t&lt;4;++t)r[0][t]=this.colors[0][t],r[1][t]=(this.colors[0][t]+this.colors[1][t])/2,o[0][t]=r[1][t],o[1][t]=this.colors[1][t];let i=new w(s[0],r),a=new w(s[1],o);i.paintCurve(t,e),a.paintCurve(t,e)}else{let s=Math.round(this.nodes[0].x);if(s&gt;=0&amp;&amp;s&lt;e){let r=4*(~~this.nodes[0].y*e+s);t[r]=Math.round(this.colors[0][0]),t[r+1]=Math.round(this.colors[0][1]),t[r+2]=Math.round(this.colors[0][2]),t[r+3]=Math.round(this.colors[0][3])}}}}class m{constructor(t,e){this.nodes=t,this.colors=e}split(){let t=[[],[],[],[]],e=[[],[],[],[]],s=[[[],[]],[[],[]]],r=[[[],[]],[[],[]]];for(let s=0;s&lt;4;++s){const r=n(this.nodes[0][s],this.nodes[1][s],this.nodes[2][s],this.nodes[3][s]);t[0][s]=r[0][0],t[1][s]=r[0][1],t[2][s]=r[0][2],t[3][s]=r[0][3],e[0][s]=r[1][0],e[1][s]=r[1][1],e[2][s]=r[1][2],e[3][s]=r[1][3]}for(let t=0;t&lt;4;++t)s[0][0][t]=this.colors[0][0][t],s[0][1][t]=this.colors[0][1][t],s[1][0][t]=(this.colors[0][0][t]+this.colors[1][0][t])/2,s[1][1][t]=(this.colors[0][1][t]+this.colors[1][1][t])/2,r[0][0][t]=s[1][0][t],r[0][1][t]=s[1][1][t],r[1][0][t]=this.colors[1][0][t],r[1][1][t]=this.colors[1][1][t];return[new m(t,s),new m(e,r)]}paint(t,e){let s,n=!1;for(let t=0;t&lt;4;++t)if((s=o([this.nodes[0][t],this.nodes[1][t],this.nodes[2][t],this.nodes[3][t]]))&gt;r){n=!0;break}if(n){let s=this.split();s[0].paint(t,e),s[1].paint(t,e)}else{new w([...this.nodes[0]],[...this.colors[0]]).paintCurve(t,e)}}}class b{constructor(t){this.readMesh(t),this.type=t.getAttribute(&quot;type&quot;)||&quot;bilinear&quot;}readMesh(t){let e=[[]],s=[[]],r=Number(t.getAttribute(&quot;x&quot;)),n=Number(t.getAttribute(&quot;y&quot;));e[0][0]=new x(r,n);let o=t.children;for(let t=0,r=o.length;t&lt;r;++t){e[3*t+1]=[],e[3*t+2]=[],e[3*t+3]=[],s[t+1]=[];let r=o[t].children;for(let n=0,o=r.length;n&lt;o;++n){let o=r[n].children;for(let r=0,i=o.length;r&lt;i;++r){let i=r;0!==t&amp;&amp;++i;let h,d=o[r].getAttribute(&quot;path&quot;),c=&quot;l&quot;;null!=d&amp;&amp;(c=(h=d.match(/\s*([lLcC])\s*(.*)/))[1]);let u=l(h[2]);switch(c){case&quot;l&quot;:0===i?(e[3*t][3*n+3]=u[0].add(e[3*t][3*n]),e[3*t][3*n+1]=a(e[3*t][3*n],e[3*t][3*n+3]),e[3*t][3*n+2]=a(e[3*t][3*n+3],e[3*t][3*n])):1===i?(e[3*t+3][3*n+3]=u[0].add(e[3*t][3*n+3]),e[3*t+1][3*n+3]=a(e[3*t][3*n+3],e[3*t+3][3*n+3]),e[3*t+2][3*n+3]=a(e[3*t+3][3*n+3],e[3*t][3*n+3])):2===i?(0===n&amp;&amp;(e[3*t+3][3*n+0]=u[0].add(e[3*t+3][3*n+3])),e[3*t+3][3*n+1]=a(e[3*t+3][3*n],e[3*t+3][3*n+3]),e[3*t+3][3*n+2]=a(e[3*t+3][3*n+3],e[3*t+3][3*n])):(e[3*t+1][3*n]=a(e[3*t][3*n],e[3*t+3][3*n]),e[3*t+2][3*n]=a(e[3*t+3][3*n],e[3*t][3*n]));break;case&quot;L&quot;:0===i?(e[3*t][3*n+3]=u[0],e[3*t][3*n+1]=a(e[3*t][3*n],e[3*t][3*n+3]),e[3*t][3*n+2]=a(e[3*t][3*n+3],e[3*t][3*n])):1===i?(e[3*t+3][3*n+3]=u[0],e[3*t+1][3*n+3]=a(e[3*t][3*n+3],e[3*t+3][3*n+3]),e[3*t+2][3*n+3]=a(e[3*t+3][3*n+3],e[3*t][3*n+3])):2===i?(0===n&amp;&amp;(e[3*t+3][3*n+0]=u[0]),e[3*t+3][3*n+1]=a(e[3*t+3][3*n],e[3*t+3][3*n+3]),e[3*t+3][3*n+2]=a(e[3*t+3][3*n+3],e[3*t+3][3*n])):(e[3*t+1][3*n]=a(e[3*t][3*n],e[3*t+3][3*n]),e[3*t+2][3*n]=a(e[3*t+3][3*n],e[3*t][3*n]));break;case&quot;c&quot;:0===i?(e[3*t][3*n+1]=u[0].add(e[3*t][3*n]),e[3*t][3*n+2]=u[1].add(e[3*t][3*n]),e[3*t][3*n+3]=u[2].add(e[3*t][3*n])):1===i?(e[3*t+1][3*n+3]=u[0].add(e[3*t][3*n+3]),e[3*t+2][3*n+3]=u[1].add(e[3*t][3*n+3]),e[3*t+3][3*n+3]=u[2].add(e[3*t][3*n+3])):2===i?(e[3*t+3][3*n+2]=u[0].add(e[3*t+3][3*n+3]),e[3*t+3][3*n+1]=u[1].add(e[3*t+3][3*n+3]),0===n&amp;&amp;(e[3*t+3][3*n+0]=u[2].add(e[3*t+3][3*n+3]))):(e[3*t+2][3*n]=u[0].add(e[3*t+3][3*n]),e[3*t+1][3*n]=u[1].add(e[3*t+3][3*n]));break;case&quot;C&quot;:0===i?(e[3*t][3*n+1]=u[0],e[3*t][3*n+2]=u[1],e[3*t][3*n+3]=u[2]):1===i?(e[3*t+1][3*n+3]=u[0],e[3*t+2][3*n+3]=u[1],e[3*t+3][3*n+3]=u[2]):2===i?(e[3*t+3][3*n+2]=u[0],e[3*t+3][3*n+1]=u[1],0===n&amp;&amp;(e[3*t+3][3*n+0]=u[2])):(e[3*t+2][3*n]=u[0],e[3*t+1][3*n]=u[1]);break;default:console.error(&quot;mesh.js: &quot;+c+&quot; invalid path type.&quot;)}if(0===t&amp;&amp;0===n||r&gt;0){let e=window.getComputedStyle(o[r]).stopColor.match(/^rgb\s*\(\s*(\d+)\s*,\s*(\d+)\s*,\s*(\d+)\s*\)$/i),a=window.getComputedStyle(o[r]).stopOpacity,h=255;a&amp;&amp;(h=Math.floor(255*a)),e&amp;&amp;(0===i?(s[t][n]=[],s[t][n][0]=Math.floor(e[1]),s[t][n][1]=Math.floor(e[2]),s[t][n][2]=Math.floor(e[3]),s[t][n][3]=h):1===i?(s[t][n+1]=[],s[t][n+1][0]=Math.floor(e[1]),s[t][n+1][1]=Math.floor(e[2]),s[t][n+1][2]=Math.floor(e[3]),s[t][n+1][3]=h):2===i?(s[t+1][n+1]=[],s[t+1][n+1][0]=Math.floor(e[1]),s[t+1][n+1][1]=Math.floor(e[2]),s[t+1][n+1][2]=Math.floor(e[3]),s[t+1][n+1][3]=h):3===i&amp;&amp;(s[t+1][n]=[],s[t+1][n][0]=Math.floor(e[1]),s[t+1][n][1]=Math.floor(e[2]),s[t+1][n][2]=Math.floor(e[3]),s[t+1][n][3]=h))}}e[3*t+1][3*n+1]=new x,e[3*t+1][3*n+2]=new x,e[3*t+2][3*n+1]=new x,e[3*t+2][3*n+2]=new x,e[3*t+1][3*n+1].x=(-4*e[3*t][3*n].x+6*(e[3*t][3*n+1].x+e[3*t+1][3*n].x)+-2*(e[3*t][3*n+3].x+e[3*t+3][3*n].x)+3*(e[3*t+3][3*n+1].x+e[3*t+1][3*n+3].x)+-1*e[3*t+3][3*n+3].x)/9,e[3*t+1][3*n+2].x=(-4*e[3*t][3*n+3].x+6*(e[3*t][3*n+2].x+e[3*t+1][3*n+3].x)+-2*(e[3*t][3*n].x+e[3*t+3][3*n+3].x)+3*(e[3*t+3][3*n+2].x+e[3*t+1][3*n].x)+-1*e[3*t+3][3*n].x)/9,e[3*t+2][3*n+1].x=(-4*e[3*t+3][3*n].x+6*(e[3*t+3][3*n+1].x+e[3*t+2][3*n].x)+-2*(e[3*t+3][3*n+3].x+e[3*t][3*n].x)+3*(e[3*t][3*n+1].x+e[3*t+2][3*n+3].x)+-1*e[3*t][3*n+3].x)/9,e[3*t+2][3*n+2].x=(-4*e[3*t+3][3*n+3].x+6*(e[3*t+3][3*n+2].x+e[3*t+2][3*n+3].x)+-2*(e[3*t+3][3*n].x+e[3*t][3*n+3].x)+3*(e[3*t][3*n+2].x+e[3*t+2][3*n].x)+-1*e[3*t][3*n].x)/9,e[3*t+1][3*n+1].y=(-4*e[3*t][3*n].y+6*(e[3*t][3*n+1].y+e[3*t+1][3*n].y)+-2*(e[3*t][3*n+3].y+e[3*t+3][3*n].y)+3*(e[3*t+3][3*n+1].y+e[3*t+1][3*n+3].y)+-1*e[3*t+3][3*n+3].y)/9,e[3*t+1][3*n+2].y=(-4*e[3*t][3*n+3].y+6*(e[3*t][3*n+2].y+e[3*t+1][3*n+3].y)+-2*(e[3*t][3*n].y+e[3*t+3][3*n+3].y)+3*(e[3*t+3][3*n+2].y+e[3*t+1][3*n].y)+-1*e[3*t+3][3*n].y)/9,e[3*t+2][3*n+1].y=(-4*e[3*t+3][3*n].y+6*(e[3*t+3][3*n+1].y+e[3*t+2][3*n].y)+-2*(e[3*t+3][3*n+3].y+e[3*t][3*n].y)+3*(e[3*t][3*n+1].y+e[3*t+2][3*n+3].y)+-1*e[3*t][3*n+3].y)/9,e[3*t+2][3*n+2].y=(-4*e[3*t+3][3*n+3].y+6*(e[3*t+3][3*n+2].y+e[3*t+2][3*n+3].y)+-2*(e[3*t+3][3*n].y+e[3*t][3*n+3].y)+3*(e[3*t][3*n+2].y+e[3*t+2][3*n].y)+-1*e[3*t][3*n].y)/9}}this.nodes=e,this.colors=s}paintMesh(t,e){let s=(this.nodes.length-1)/3,r=(this.nodes[0].length-1)/3;if(&quot;bilinear&quot;===this.type||s&lt;2||r&lt;2){let n;for(let o=0;o&lt;s;++o)for(let s=0;s&lt;r;++s){let r=[];for(let t=3*o,e=3*o+4;t&lt;e;++t)r.push(this.nodes[t].slice(3*s,3*s+4));let i=[];i.push(this.colors[o].slice(s,s+2)),i.push(this.colors[o+1].slice(s,s+2)),(n=new m(r,i)).paint(t,e)}}else{let n,o,a,h,l,d,u;const x=s,g=r;s++,r++;let w=new Array(s);for(let t=0;t&lt;s;++t){w[t]=new Array(r);for(let e=0;e&lt;r;++e)w[t][e]=[],w[t][e][0]=this.nodes[3*t][3*e],w[t][e][1]=this.colors[t][e]}for(let t=0;t&lt;s;++t)for(let e=0;e&lt;r;++e)0!==t&amp;&amp;t!==x&amp;&amp;(n=i(w[t-1][e][0],w[t][e][0]),o=i(w[t+1][e][0],w[t][e][0]),w[t][e][2]=c(w[t-1][e][1],w[t][e][1],w[t+1][e][1],n,o)),0!==e&amp;&amp;e!==g&amp;&amp;(n=i(w[t][e-1][0],w[t][e][0]),o=i(w[t][e+1][0],w[t][e][0]),w[t][e][3]=c(w[t][e-1][1],w[t][e][1],w[t][e+1][1],n,o));for(let t=0;t&lt;r;++t){w[0][t][2]=[],w[x][t][2]=[];for(let e=0;e&lt;4;++e)n=i(w[1][t][0],w[0][t][0]),o=i(w[x][t][0],w[x-1][t][0]),w[0][t][2][e]=n&gt;0?2*(w[1][t][1][e]-w[0][t][1][e])/n-w[1][t][2][e]:0,w[x][t][2][e]=o&gt;0?2*(w[x][t][1][e]-w[x-1][t][1][e])/o-w[x-1][t][2][e]:0}for(let t=0;t&lt;s;++t){w[t][0][3]=[],w[t][g][3]=[];for(let e=0;e&lt;4;++e)n=i(w[t][1][0],w[t][0][0]),o=i(w[t][g][0],w[t][g-1][0]),w[t][0][3][e]=n&gt;0?2*(w[t][1][1][e]-w[t][0][1][e])/n-w[t][1][3][e]:0,w[t][g][3][e]=o&gt;0?2*(w[t][g][1][e]-w[t][g-1][1][e])/o-w[t][g-1][3][e]:0}for(let s=0;s&lt;x;++s)for(let r=0;r&lt;g;++r){let n=i(w[s][r][0],w[s+1][r][0]),o=i(w[s][r+1][0],w[s+1][r+1][0]),c=i(w[s][r][0],w[s][r+1][0]),x=i(w[s+1][r][0],w[s+1][r+1][0]),g=[[],[],[],[]];for(let t=0;t&lt;4;++t){(d=[])[0]=w[s][r][1][t],d[1]=w[s+1][r][1][t],d[2]=w[s][r+1][1][t],d[3]=w[s+1][r+1][1][t],d[4]=w[s][r][2][t]*n,d[5]=w[s+1][r][2][t]*n,d[6]=w[s][r+1][2][t]*o,d[7]=w[s+1][r+1][2][t]*o,d[8]=w[s][r][3][t]*c,d[9]=w[s+1][r][3][t]*x,d[10]=w[s][r+1][3][t]*c,d[11]=w[s+1][r+1][3][t]*x,d[12]=0,d[13]=0,d[14]=0,d[15]=0,u=f(d);for(let e=0;e&lt;9;++e){g[t][e]=[];for(let s=0;s&lt;9;++s)g[t][e][s]=p(u,e/8,s/8),g[t][e][s]&gt;255?g[t][e][s]=255:g[t][e][s]&lt;0&amp;&amp;(g[t][e][s]=0)}}h=[];for(let t=3*s,e=3*s+4;t&lt;e;++t)h.push(this.nodes[t].slice(3*r,3*r+4));l=y(h);for(let s=0;s&lt;8;++s)for(let r=0;r&lt;8;++r)(a=new m(l[s][r],[[[g[0][s][r],g[1][s][r],g[2][s][r],g[3][s][r]],[g[0][s][r+1],g[1][s][r+1],g[2][s][r+1],g[3][s][r+1]]],[[g[0][s+1][r],g[1][s+1][r],g[2][s+1][r],g[3][s+1][r]],[g[0][s+1][r+1],g[1][s+1][r+1],g[2][s+1][r+1],g[3][s+1][r+1]]]])).paint(t,e)}}}transform(t){if(t instanceof x)for(let e=0,s=this.nodes.length;e&lt;s;++e)for(let s=0,r=this.nodes[0].length;s&lt;r;++s)this.nodes[e][s]=this.nodes[e][s].add(t);else if(t instanceof g)for(let e=0,s=this.nodes.length;e&lt;s;++e)for(let s=0,r=this.nodes[0].length;s&lt;r;++s)this.nodes[e][s]=this.nodes[e][s].transform(t)}scale(t){for(let e=0,s=this.nodes.length;e&lt;s;++e)for(let s=0,r=this.nodes[0].length;s&lt;r;++s)this.nodes[e][s]=this.nodes[e][s].scale(t)}}document.querySelectorAll(&quot;rect,circle,ellipse,path,text&quot;).forEach((r,n)=&gt;{let o=r.getAttribute(&quot;id&quot;);o||(o=&quot;patchjs_shape&quot;+n,r.setAttribute(&quot;id&quot;,o));const i=r.style.fill.match(/^url\(\s*&quot;?\s*#([^\s&quot;]+)&quot;?\s*\)/),a=r.style.stroke.match(/^url\(\s*&quot;?\s*#([^\s&quot;]+)&quot;?\s*\)/);if(i&amp;&amp;i[1]){const a=document.getElementById(i[1]);if(a&amp;&amp;&quot;meshgradient&quot;===a.nodeName){const i=r.getBBox();let l=document.createElementNS(s,&quot;canvas&quot;);d(l,{width:i.width,height:i.height});const c=l.getContext(&quot;2d&quot;);let u=c.createImageData(i.width,i.height);const f=new b(a);&quot;objectBoundingBox&quot;===a.getAttribute(&quot;gradientUnits&quot;)&amp;&amp;f.scale(new x(i.width,i.height));const p=a.getAttribute(&quot;gradientTransform&quot;);null!=p&amp;&amp;f.transform(h(p)),&quot;userSpaceOnUse&quot;===a.getAttribute(&quot;gradientUnits&quot;)&amp;&amp;f.transform(new x(-i.x,-i.y)),f.paintMesh(u.data,l.width),c.putImageData(u,0,0);const y=document.createElementNS(t,&quot;image&quot;);d(y,{width:i.width,height:i.height,x:i.x,y:i.y});let g=l.toDataURL();y.setAttributeNS(e,&quot;xlink:href&quot;,g),r.parentNode.insertBefore(y,r),r.style.fill=&quot;none&quot;;const w=document.createElementNS(t,&quot;use&quot;);w.setAttributeNS(e,&quot;xlink:href&quot;,&quot;#&quot;+o);const m=&quot;patchjs_clip&quot;+n,M=document.createElementNS(t,&quot;clipPath&quot;);M.setAttribute(&quot;id&quot;,m),M.appendChild(w),r.parentElement.insertBefore(M,r),y.setAttribute(&quot;clip-path&quot;,&quot;url(#&quot;+m+&quot;)&quot;),u=null,l=null,g=null}}if(a&amp;&amp;a[1]){const o=document.getElementById(a[1]);if(o&amp;&amp;&quot;meshgradient&quot;===o.nodeName){const i=parseFloat(r.style.strokeWidth.slice(0,-2))*(parseFloat(r.style.strokeMiterlimit)||parseFloat(r.getAttribute(&quot;stroke-miterlimit&quot;))||1),a=r.getBBox(),l=Math.trunc(a.width+i),c=Math.trunc(a.height+i),u=Math.trunc(a.x-i/2),f=Math.trunc(a.y-i/2);let p=document.createElementNS(s,&quot;canvas&quot;);d(p,{width:l,height:c});const y=p.getContext(&quot;2d&quot;);let g=y.createImageData(l,c);const w=new b(o);&quot;objectBoundingBox&quot;===o.getAttribute(&quot;gradientUnits&quot;)&amp;&amp;w.scale(new x(l,c));const m=o.getAttribute(&quot;gradientTransform&quot;);null!=m&amp;&amp;w.transform(h(m)),&quot;userSpaceOnUse&quot;===o.getAttribute(&quot;gradientUnits&quot;)&amp;&amp;w.transform(new x(-u,-f)),w.paintMesh(g.data,p.width),y.putImageData(g,0,0);const M=document.createElementNS(t,&quot;image&quot;);d(M,{width:l,height:c,x:0,y:0});let S=p.toDataURL();M.setAttributeNS(e,&quot;xlink:href&quot;,S);const k=&quot;pattern_clip&quot;+n,A=document.createElementNS(t,&quot;pattern&quot;);d(A,{id:k,patternUnits:&quot;userSpaceOnUse&quot;,width:l,height:c,x:u,y:f}),A.appendChild(M),o.parentNode.appendChild(A),r.style.stroke=&quot;url(#&quot;+k+&quot;)&quot;,g=null,p=null,S=null}}})}();
</script>
</svg>
